<svg xmlns="http://www.w3.org/2000/svg" viewBox="0 0 987.69 1061.95"><defs><style>.cls-1{fill:#72c982;}</style></defs><g id="Layer_2" data-name="Layer 2"><g id="Layer_1-2" data-name="Layer 1"><path class="cls-1" d="M369.23,421.71c-6.41,77-12.4,148.82-18.78,225.39,51,0,98.08-.13,145.14,0,59.74.2,71.06,9.19,84.81,66.75q26.86,112.49,53.76,225c5.11,21.21,6.9,40.55-19.47,49.11-24.59,8-39.81,1.18-51.69-26.28-26.77-61.91-53.08-124-78.38-186.56-5.93-14.67-13.52-19-29-18.76-73.66,1-147.34,1.4-221,.44C175.64,756,139,712.27,147,651.7c12.23-92.09,25.81-184,39.82-275.84,4.87-32,10.78-64,19.62-95.1C226,212.2,280.16,212.9,327,237.74c14.9,7.91,27,22.16,38.56,35.1,34.51,38.54,69.36,76.9,101.62,117.29,16.67,20.87,35.6,31,61.62,33.41,32.25,2.95,64.42,7.79,96.28,13.68,12.38,2.29,26.28,7,35.16,15.29,19.59,18.23,9.45,52.31-16.86,53.5a1561.92,1561.92,0,0,1-162.8-1c-14.36-.85-28.62-15.45-41.57-25.49C416.42,462,394.93,443.13,369.23,421.71Z"/><path class="cls-1" d="M700.07,550.37q122.43,0,244.86,0c34.12.05,42.51,8,42.57,41.5q.35,208,.08,416c0,32.16-8.73,40.9-40.55,41.08-54.41.32-108.83-.54-163.23.38-24.06.41-36.22-9.51-43.55-32.45-41.1-128.56-83.82-256.61-124.85-385.19-5.84-18.3-14-24.45-33-23.75-42.07,1.53-84.23.72-126.36.56-29.72-.12-44.78-10.26-43-30,2.37-25.75,21-28.31,42.16-28.19,81.62.43,163.24.17,244.86.17Z"/><path class="cls-1" d="M358.88,853.3c15.92,61,31.21,119.41,46.36,177.85,2.95,11.37,10.91,26.4-7.34,29.41-5.55.92-17.61-13.78-20.3-23.17-17.1-59.62-32.41-119.75-47.58-177L170.66,841.57c-8.79,32.79-18.69,69.69-28.56,106.6-8.61,32.16-16.43,64.57-26.35,96.32-2.2,7-11.81,11.7-18,17.46-3-8.55-10.19-18.12-8.4-25.5q22.94-94.51,49-188.23c4.63-16.68,3.06-25.49-13.2-35.7C40.23,759.16,10.41,674.81.24,580.75c-2-18.18,8-31,27.12-31.87C46.27,548,55.57,559.33,58,577.8c2.28,17.34,4.78,34.79,9.13,51.69C95.36,739.19,162.91,794,276.31,797.25c32.26.93,64.84-2,97-5.82,20.68-2.44,36.29,1.71,40.08,22.85,3.94,22-11.46,31-30.76,34.57C375.8,850.1,369,851.39,358.88,853.3Z"/><path class="cls-1" d="M449.44,102.74a101.19,101.19,0,1,1-202.36-2.59C247.83,44.8,293.12,0,348.36,0A101,101,0,0,1,449.44,102.74Z"/><path class="cls-1" d="M903,450.13c16.2-58.9,31.61-115.45,47.38-171.9,3.13-11.2,4.18-28.05,21.63-21.42,5,1.92,8.15,19.21,6,28-11.13,45.91-25.16,91.12-36.15,137.06-4,16.84-3.39,35-3.18,52.6.25,20.24-8.55,33-28.5,33.3q-90.66,1.35-181.33,0c-18.21-.25-29.78-11.6-28.68-30.54,1-17.37,12.19-26.63,29.73-26.73,48.18-.27,96.36-.24,144.54-.33Z"/></g></g></svg>