<svg xmlns="http://www.w3.org/2000/svg" viewBox="0 0 1586.14 313.08"><defs><style>.cls-1{fill:#50aeae;}.cls-2{fill:#3a7c7c;}.cls-3{fill:#fefefe;}</style></defs><g id="Layer_2" data-name="Layer 2"><g id="Layer_1-2" data-name="Layer 1"><path class="cls-1" d="M490.28,0c5.85,63.74.49,125.72-28.15,183.94-29.65,60.26-78.17,97.76-142.28,116-22.51,6.4-45.5,9.87-68.77,12.1-9.7.93-19.38.54-29.05,1-3,.15-5.06-.59-5.54-4-2.53-17.88-6.76-35.54-6.59-53.76q.73-81.06,62.51-133.53c23.09-19.61,49.8-33.21,76.94-46C381.58,60.47,415.41,49,448,34.7A143.12,143.12,0,0,0,467,25C476.85,18.75,486.12,11.86,490.28,0Z"/><path class="cls-2" d="M204.79,312.33a135.25,135.25,0,0,1-51.92-13C127,287.09,107,268.24,91.17,244.72c-18.48-27.44-31.61-57.54-43.8-88.1-6.43-16.13-12.43-32.43-19.88-48.15A123.3,123.3,0,0,0,19.23,93.7C14.7,86.8,9.08,81.09,0,78c8.28-1.75,15.59-1.85,22.84-2.08,42-1.34,82.92,4,121.93,20.52,28.81,12.21,53.33,30.13,73.12,54.46,2,2.44,2.06,4.19.53,6.83-19.14,33-27.19,68.61-25.32,106.59a23.23,23.23,0,0,1-.27,2.63c-31.9-21.31-57.5-48-79-79,.87,5.4,2.9,10.37,5.09,15.26,12.94,29,34.11,51,59.5,69.4,5.05,3.64,11.24,6.11,15.3,10.58s2.71,11.54,4.58,17.29A38.37,38.37,0,0,0,204.79,312.33Z"/><path class="cls-2" d="M1038.25,139.09c19.26-16.58,39.84-19.37,62.17-11.26A36.11,36.11,0,0,1,1117.84,141c1.93,2.72,2.93,3,5.31.27,20.13-22.71,64.48-24.45,83.71-1.12,7.5,9.1,10.8,19.78,11.38,31.27,1.3,25.9.33,51.82.58,77.73,0,.15,0,.29,0,.43.15,2.32-.75,3.39-3.26,3.36-10.14-.09-20.28-.15-30.42,0-3.64.06-3.42-2.09-3.42-4.5,0-20,0-40,0-59.93a82.84,82.84,0,0,0-.76-11.25c-2.69-18.76-19.41-27.48-36.48-19-10.18,5.06-14.51,14.09-14.75,24.8-.49,21.27-.32,42.56-.41,63.84,0,6,0,6-5.83,6-9,0-18-.14-26.94.08-3.47.08-4.42-1.09-4.4-4.46.13-20,.06-39.95.07-59.93a78.78,78.78,0,0,0-.75-11.69c-2.8-18.5-19.46-27.14-36.31-18.65-10.84,5.46-14.73,15.26-14.94,26.56-.36,20.55-.18,41.11-.23,61.67,0,6.42,0,6.42-6.23,6.42-9,0-18-.09-26.94.05-2.95.05-4.07-.82-4.06-3.91q.12-59.94,0-119.88c0-3,.87-4.08,3.95-4,9.27.16,18.54.13,27.81,0,2.78,0,4,.82,3.8,3.7C1038.11,132,1038.25,135.12,1038.25,139.09Z"/><path class="cls-2" d="M588.71,84.08a115.31,115.31,0,0,1,50.87,11.3c6.22,2.93,6.19,3,3.66,9.17-2.63,6.43-5.46,12.79-7.82,19.31-1.25,3.43-2.78,3.66-5.69,2a88,88,0,0,0-37.66-10.85c-9.2-.55-18.28-.16-26.71,4.14-6.13,3.14-9.74,9.34-9.25,15.49.47,5.87,3.85,9.48,8.95,11.8,7.55,3.44,15.56,5.47,23.59,7.4,11.26,2.71,22.51,5.51,33.42,9.43,11.55,4.15,21.36,10.85,26.69,22.2,10.38,22,.64,48.35-21.77,60.41-11.88,6.38-24.65,9.09-38,9.63-20.69.85-40.73-2.07-59.81-10.46a87.53,87.53,0,0,1-11.8-6.43c-2.34-1.5-2.6-2.95-1.46-5.36,3.47-7.33,6.83-14.71,10-22.16,1.16-2.71,2.18-3,4.72-1.38,19.3,12.14,40.28,17.25,63,14.46,5.1-.62,9.94-2,14.14-5.1,9.19-6.79,8.74-18-1-24-7.4-4.57-15.85-6.22-24.12-8.31-13.06-3.3-26.22-6.25-38.66-11.56-31.29-13.34-31.44-48.33-17-67.39,10.58-14,25.65-19.68,42.2-22.52A124.56,124.56,0,0,1,588.71,84.08Z"/><path class="cls-2" d="M914.85,84.36a113.29,113.29,0,0,1,52.09,11.45c3.76,1.79,5.2,3.6,3.1,7.92a216.82,216.82,0,0,0-8.23,20.08c-1.21,3.27-2.57,3.86-5.64,2.16A87.41,87.41,0,0,0,919,115.1c-9.35-.61-18.59-.31-27.14,4.08-5.34,2.74-8.74,7-9.22,13.24s2,10.65,7.56,13.43c7.7,3.87,16,5.9,24.31,7.92,11.4,2.78,22.83,5.47,33.85,9.53,13.46,4.95,24.55,12.95,28.81,27.35,6.51,22.06-3.36,44.28-23.7,55.22-12,6.46-24.91,9.18-38.38,9.7-20.54.8-40.44-2.13-59.38-10.43-4.79-2.09-10.79-3.74-13.16-7.95-2.64-4.67,2.87-9.22,4.49-13.93,1.41-4.09,3.66-7.88,5.23-11.93,1.17-3,2.39-3.08,5-1.42,19.33,12.09,40.32,17.15,63.07,14.28,5.38-.68,10.49-2.19,14.76-5.75,8.17-6.81,7.57-17.19-1.38-23a52.76,52.76,0,0,0-14.8-6.11c-16-4.39-32.53-7.33-47.92-13.89-14.78-6.29-24.52-17-26.35-33.36-2-17.86,3.81-32.89,18.34-43.9,12.19-9.23,26.45-12.79,41.44-13.83C907.88,84.15,911.37,84.36,914.85,84.36Z"/><path class="cls-2" d="M1364.81,175.2c-.93-28.53-16.1-45.19-44.06-50.26-13.13-2.38-26.19-1.68-39.27.79a88.25,88.25,0,0,0-30,11c-2.15,1.3-3.07,2.52-1.61,5.17,3.57,6.45,6.88,13,10.16,19.66,1.18,2.37,2.21,2.76,4.57,1.19,11.91-7.91,25.17-10.73,39.3-9.66,13.37,1,21.8,8.1,23.66,19.61.76,4.73.29,5.33-4.44,5.35-9.84.06-19.69.07-29.54.12a85.27,85.27,0,0,0-23.12,3.42c-15.65,4.46-24.93,15.4-26.65,31.21-1.6,14.69,5.69,28.23,19.28,35.56,12,6.46,24.86,7.43,38,5.84,11.54-1.4,21.69-5.79,29.3-16.92,0,4.94.11,8.51,0,12.07-.11,2.54.7,3.62,3.43,3.59q13.9-.17,27.8,0c2.62,0,3.55-.89,3.54-3.52C1365,224.69,1365.61,199.92,1364.81,175.2Zm-60.06,54.39c-5.07.38-10.11.31-15-1.51-6.37-2.37-9.89-7.28-9.88-13.77s3.21-10.64,10-13,13.72-1.39,19.09-1.67c6.15,0,10.77.06,15.4,0,2.57-.06,3.45,1,3.59,3.6C1328.8,218.23,1319.91,228.46,1304.75,229.59Z"/><path class="cls-2" d="M1508.91,188.55c0-8.83-.23-17.67.11-26.49.17-4.53-1.43-5.91-5.74-5.51-3.44.31-6.94,0-10.42.07-2.25,0-3.53-.59-3.5-3.16.09-7.24.07-14.48,0-21.72,0-2.38,1-3.43,3.34-3.4,3.91.06,7.83-.14,11.73,0,3.32.15,4.64-1,4.55-4.47-.2-7.52,0-15.05-.1-22.58-.06-3.16,1-4.36,4.28-4.31q14.34.22,28.68,0c3.22-.05,4.3,1.1,4.23,4.3-.18,7.67.06,15.35-.11,23-.06,3.06,1.07,4.07,4,4,8-.11,15.94,0,23.9-.06,2.92,0,4.21.92,4.14,4q-.23,10.2,0,20.41c.08,3.09-1.17,4-4.1,3.94-7.68-.13-15.36.14-23-.11-3.76-.13-5,1-5,4.86.22,15.19,0,30.4.1,45.6s10.89,22.41,25.23,16.75c5.89-2.32,5.9-2.33,8.24,3.8,2,5.13,3.68,10.38,6,15.38,1.53,3.37.45,4.86-2.51,6.36-10.91,5.51-22.51,6.11-34.33,5.05a52.05,52.05,0,0,1-13.12-2.89c-16-5.83-24.13-17.74-26-34.25C1508.48,207.68,1509,198.1,1508.91,188.55Z"/><path class="cls-2" d="M752.43,186.58c0-8.54-.14-17.09.07-25.63.09-3.51-1.21-4.58-4.54-4.39-3.76.22-7.54-.07-11.3.08-2.84.1-3.84-1.09-3.8-3.85.1-6.95.08-13.9,0-20.85,0-2.59,1.1-3.65,3.65-3.6,4.05.06,8.11-.1,12.17,0,2.79.08,3.82-1,3.77-3.82-.13-7.81.06-15.63-.08-23.45,0-3,1.07-4.1,4.05-4.07,9.7.11,19.41.14,29.11,0,3.37-.05,4.17,1.41,4.11,4.45-.15,7.09.2,14.2-.14,21.28-.2,4.3,1,5.92,5.5,5.69,7.22-.36,14.48,0,21.72-.14,3.31-.07,4.71,1,4.61,4.48-.19,6.51-.22,13,0,19.54.12,3.6-1.44,4.41-4.66,4.35-7.53-.16-15.07.08-22.6-.1-3.29-.08-4.59.83-4.55,4.37.17,15.78,0,31.56.1,47.34.09,13,9,19.73,21.8,16.59.57-.14,1.1-.42,1.67-.5,2.63-.36,5.12-3.77,7.39-2,1.88,1.49,2.31,4.84,3.31,7.4,1.84,4.71,3.56,9.48,5.48,14.16.88,2.15.43,3.36-1.55,4.61-15.26,9.63-46.08,7.9-60.37-3.4-10.81-8.56-14.29-20.38-14.8-33.38-.34-8.39-.07-16.79-.07-25.19Z"/><path class="cls-2" d="M1433.86,140.41A54.72,54.72,0,0,1,1462.72,125c3.68-.74,7.45-.93,11.18-1.42,2.91-.38,4.17.65,4.11,3.78q-.23,13,0,26c.07,3.34-1.2,4.3-4.36,4.05a43.44,43.44,0,0,0-18.83,2.24c-11.14,4.21-16.8,12.79-18.43,24.23a86.15,86.15,0,0,0-.78,11.68c-.08,17.65-.11,35.31,0,53,0,3.3-.81,4.58-4.35,4.49-9.26-.23-18.53-.27-27.79,0-4,.13-5.14-1.17-5.12-5.12.12-39.21.07-78.42.07-117.64,0-.57,0-1.15,0-1.73-.15-2.35.81-3.36,3.29-3.34,9.7.1,19.4.08,29.1,0,2.26,0,3.08.9,3,3.09C1433.8,132.33,1433.86,136.37,1433.86,140.41Z"/><path class="cls-2" d="M676.58,189.08c0-19.68.09-39.37-.08-59.06,0-3.79,1-5,4.89-4.9,9.26.27,18.54.2,27.8,0,3.19-.06,4.3.94,4.29,4.19q-.12,59.72,0,119.42c0,3.22-1,4.28-4.26,4.22-9.26-.17-18.54-.23-27.8,0-3.81.1-5-1-4.92-4.87C676.67,228.46,676.58,208.77,676.58,189.08Z"/><path class="cls-2" d="M695.67,107.25c-15.24,0-24.52-9.27-23.41-22.79a17.79,17.79,0,0,1,9-14.52c9.29-5.4,18.86-5.12,28,.21,7.13,4.15,10.06,12.58,8.09,21.19A20.78,20.78,0,0,1,699.75,107C698.17,107.2,696.57,107.2,695.67,107.25Z"/><path class="cls-3" d="M279.45,154.67c4.95-.17,9.15,1.48,12.15,5.47,1.6,2.12,2.45,1.43,3.93-.14,5.29-5.64,12.58-7.05,19-3.91s9.84,10.27,8.81,17.8c-1.11,8.08-5.91,14.07-11.24,19.63-4.9,5.13-10.61,9.39-16.35,13.57-1.25.91-2.34,1.54-3.87.41-9-6.63-17.92-13.31-23.9-23.05a26,26,0,0,1-4.16-14.38C264,160.74,270.15,154.64,279.45,154.67Z"/></g></g></svg>