<svg xmlns="http://www.w3.org/2000/svg" viewBox="0 0 1496.25 951.37"><defs><style>.cls-1{fill:#50aeae;}.cls-2{fill:#3a7c7c;}</style></defs><g id="Layer_2" data-name="Layer 2"><g id="Layer_1-2" data-name="Layer 1"><path class="cls-1" d="M1489.83,0C1477.21,36,1449,57,1419,75.93c-18.26,11.51-37.75,20.82-57.52,29.5-99.12,43.55-201.9,78.33-299.84,124.68-82.48,39-163.65,80.37-233.8,139.93Q640,529.46,637.83,775.81c-.51,55.38,12.35,109.05,20,163.39,1.46,10.3,7.77,12.57,16.81,12.11,29.41-1.51,58.81-.34,88.29-3.16,70.7-6.77,140.59-17.32,209-36.76C1166.74,856,1314.2,742.06,1404.29,558.94,1491.33,382,1507.63,193.67,1489.83,0ZM982.39,528.41c-3.37,24.53-17.95,42.74-34.13,59.65-14.91,15.58-32.25,28.53-49.69,41.22-3.8,2.76-7.13,4.68-11.76,1.27-27.33-20.15-54.45-40.47-72.62-70-8.22-13.38-13-27.75-12.66-43.7.62-28.34,19.38-46.9,47.65-46.8,15-.52,27.8,4.51,36.92,16.62,4.86,6.46,7.44,4.35,11.93-.44,16.1-17.13,38.24-21.42,57.59-11.86S985.53,505.53,982.39,528.41Z"/><path class="cls-2" d="M622.3,949.1c-57.3-2.86-108.72-16.52-157.77-39.65C385.92,872.39,325.19,815.12,277,743.63,220.87,660.25,181,568.8,144,475.93c-19.55-49-37.79-98.56-60.41-146.32a375.18,375.18,0,0,0-25.13-44.87C44.68,263.75,27.6,246.42,0,237c25.15-5.31,47.38-5.61,69.39-6.31,127.65-4.09,252,12.13,370.53,62.36C527.46,330.16,602,384.6,662.1,458.55c6,7.41,6.27,12.73,1.62,20.74-58.16,100.22-82.63,208.51-76.93,323.92.08,1.7-.34,3.42-.82,8-96.94-64.78-174.73-145.88-240.2-240,2.65,16.43,8.84,31.52,15.46,46.38,39.32,88.22,103.66,155.12,180.84,210.89,15.32,11.08,34.14,18.58,46.47,32.16s8.25,35.06,13.93,52.52C606.47,925.47,612.54,936.39,622.3,949.1Z"/></g></g></svg>